<?xml version="1.0" encoding="UTF-8" standalone="no"?>
<!DOCTYPE svg PUBLIC "-//W3C//DTD SVG 1.1//EN"
 "http://www.w3.org/Graphics/SVG/1.1/DTD/svg11.dtd">
<!-- Generated by graphviz version 6.0.1 (20220911.1526)
 -->
<!-- Pages: 1 -->
<svg width="866pt" height="260pt"
 viewBox="0.00 0.00 866.25 260.00" xmlns="http://www.w3.org/2000/svg" xmlns:xlink="http://www.w3.org/1999/xlink">
<g id="graph0" class="graph" transform="scale(1 1) rotate(0) translate(4 256)">
<polygon fill="white" stroke="none" points="-4,4 -4,-256 862.25,-256 862.25,4 -4,4"/>
<!-- [root] aws_instance.ubuntu (expand) -->
<g id="node1" class="node">
<title>[root] aws_instance.ubuntu (expand)</title>
<polygon fill="none" stroke="black" points="695.77,-108 565.77,-108 565.77,-72 695.77,-72 695.77,-108"/>
<text text-anchor="middle" x="630.77" y="-86.3" font-family="Times,serif" font-size="14.00">aws_instance.ubuntu</text>
</g>
<!-- [root] provider[&quot;registry.terraform.io/hashicorp/aws&quot;] -->
<g id="node2" class="node">
<title>[root] provider[&quot;registry.terraform.io/hashicorp/aws&quot;]</title>
<polygon fill="none" stroke="black" points="252.77,-36 0.23,-18 252.77,0 505.3,-18 252.77,-36"/>
<text text-anchor="middle" x="252.77" y="-14.3" font-family="Times,serif" font-size="14.00">provider[&quot;registry.terraform.io/hashicorp/aws&quot;]</text>
</g>
<!-- [root] aws_instance.ubuntu (expand)&#45;&gt;[root] provider[&quot;registry.terraform.io/hashicorp/aws&quot;] -->
<g id="edge1" class="edge">
<title>[root] aws_instance.ubuntu (expand)&#45;&gt;[root] provider[&quot;registry.terraform.io/hashicorp/aws&quot;]</title>
<path fill="none" stroke="black" d="M565.36,-76.89C499.7,-64.73 398.61,-46.01 329.27,-33.17"/>
<polygon fill="black" stroke="black" points="329.75,-29.7 319.28,-31.32 328.48,-36.58 329.75,-29.7"/>
</g>
<!-- [root] var.ec2&#45;image -->
<g id="node3" class="node">
<title>[root] var.ec2&#45;image</title>
<polygon fill="none" stroke="black" points="611.77,-36 523.77,-36 523.77,0 617.77,0 617.77,-30 611.77,-36"/>
<polyline fill="none" stroke="black" points="611.77,-36 611.77,-30"/>
<polyline fill="none" stroke="black" points="617.77,-30 611.77,-30"/>
<text text-anchor="middle" x="570.77" y="-14.3" font-family="Times,serif" font-size="14.00">var.ec2&#45;image</text>
</g>
<!-- [root] aws_instance.ubuntu (expand)&#45;&gt;[root] var.ec2&#45;image -->
<g id="edge2" class="edge">
<title>[root] aws_instance.ubuntu (expand)&#45;&gt;[root] var.ec2&#45;image</title>
<path fill="none" stroke="black" d="M615.94,-71.7C608.74,-63.3 599.97,-53.07 592.08,-43.86"/>
<polygon fill="black" stroke="black" points="594.59,-41.42 585.43,-36.1 589.28,-45.97 594.59,-41.42"/>
</g>
<!-- [root] var.instance&#45;type -->
<g id="node4" class="node">
<title>[root] var.instance&#45;type</title>
<polygon fill="none" stroke="black" points="739.27,-36 636.27,-36 636.27,0 745.27,0 745.27,-30 739.27,-36"/>
<polyline fill="none" stroke="black" points="739.27,-36 739.27,-30"/>
<polyline fill="none" stroke="black" points="745.27,-30 739.27,-30"/>
<text text-anchor="middle" x="690.77" y="-14.3" font-family="Times,serif" font-size="14.00">var.instance&#45;type</text>
</g>
<!-- [root] aws_instance.ubuntu (expand)&#45;&gt;[root] var.instance&#45;type -->
<g id="edge3" class="edge">
<title>[root] aws_instance.ubuntu (expand)&#45;&gt;[root] var.instance&#45;type</title>
<path fill="none" stroke="black" d="M645.6,-71.7C652.79,-63.3 661.56,-53.07 669.46,-43.86"/>
<polygon fill="black" stroke="black" points="672.26,-45.97 676.11,-36.1 666.94,-41.42 672.26,-45.97"/>
</g>
<!-- [root] var.key&#45;name -->
<g id="node5" class="node">
<title>[root] var.key&#45;name</title>
<polygon fill="none" stroke="black" points="848.27,-36 763.27,-36 763.27,0 854.27,0 854.27,-30 848.27,-36"/>
<polyline fill="none" stroke="black" points="848.27,-36 848.27,-30"/>
<polyline fill="none" stroke="black" points="854.27,-30 848.27,-30"/>
<text text-anchor="middle" x="808.77" y="-14.3" font-family="Times,serif" font-size="14.00">var.key&#45;name</text>
</g>
<!-- [root] aws_instance.ubuntu (expand)&#45;&gt;[root] var.key&#45;name -->
<g id="edge4" class="edge">
<title>[root] aws_instance.ubuntu (expand)&#45;&gt;[root] var.key&#45;name</title>
<path fill="none" stroke="black" d="M674.31,-71.88C698.97,-62.18 729.99,-49.98 756.02,-39.74"/>
<polygon fill="black" stroke="black" points="757.34,-42.99 765.37,-36.07 754.78,-36.47 757.34,-42.99"/>
</g>
<!-- [root] provider[&quot;registry.terraform.io/hashicorp/aws&quot;] (close) -->
<g id="node6" class="node">
<title>[root] provider[&quot;registry.terraform.io/hashicorp/aws&quot;] (close)</title>
<ellipse fill="none" stroke="black" cx="630.77" cy="-162" rx="227.46" ry="18"/>
<text text-anchor="middle" x="630.77" y="-158.3" font-family="Times,serif" font-size="14.00">[root] provider[&quot;registry.terraform.io/hashicorp/aws&quot;] (close)</text>
</g>
<!-- [root] provider[&quot;registry.terraform.io/hashicorp/aws&quot;] (close)&#45;&gt;[root] aws_instance.ubuntu (expand) -->
<g id="edge5" class="edge">
<title>[root] provider[&quot;registry.terraform.io/hashicorp/aws&quot;] (close)&#45;&gt;[root] aws_instance.ubuntu (expand)</title>
<path fill="none" stroke="black" d="M630.77,-143.7C630.77,-135.98 630.77,-126.71 630.77,-118.11"/>
<polygon fill="black" stroke="black" points="634.27,-118.1 630.77,-108.1 627.27,-118.1 634.27,-118.1"/>
</g>
<!-- [root] root -->
<g id="node7" class="node">
<title>[root] root</title>
<ellipse fill="none" stroke="black" cx="630.77" cy="-234" rx="47.39" ry="18"/>
<text text-anchor="middle" x="630.77" y="-230.3" font-family="Times,serif" font-size="14.00">[root] root</text>
</g>
<!-- [root] root&#45;&gt;[root] provider[&quot;registry.terraform.io/hashicorp/aws&quot;] (close) -->
<g id="edge6" class="edge">
<title>[root] root&#45;&gt;[root] provider[&quot;registry.terraform.io/hashicorp/aws&quot;] (close)</title>
<path fill="none" stroke="black" d="M630.77,-215.7C630.77,-207.98 630.77,-198.71 630.77,-190.11"/>
<polygon fill="black" stroke="black" points="634.27,-190.1 630.77,-180.1 627.27,-190.1 634.27,-190.1"/>
</g>
</g>
</svg>
