<?xml version="1.0" encoding="UTF-8" standalone="no"?>
<!DOCTYPE svg PUBLIC "-//W3C//DTD SVG 1.1//EN"
 "http://www.w3.org/Graphics/SVG/1.1/DTD/svg11.dtd">
<!-- Generated by graphviz version 6.0.1 (20220911.1526)
 -->
<!-- Pages: 1 -->
<svg width="1070pt" height="404pt"
 viewBox="0.00 0.00 1070.00 404.00" xmlns="http://www.w3.org/2000/svg" xmlns:xlink="http://www.w3.org/1999/xlink">
<g id="graph0" class="graph" transform="scale(1 1) rotate(0) translate(4 400)">
<polygon fill="white" stroke="none" points="-4,4 -4,-400 1066,-400 1066,4 -4,4"/>
<!-- [root] aws_instance.UBUNTU (expand) -->
<g id="node1" class="node">
<title>[root] aws_instance.UBUNTU (expand)</title>
<polygon fill="none" stroke="black" points="301.5,-252 152.5,-252 152.5,-216 301.5,-216 301.5,-252"/>
<text text-anchor="middle" x="227" y="-230.3" font-family="Times,serif" font-size="14.00">aws_instance.UBUNTU</text>
</g>
<!-- [root] aws_security_group.traffic (expand) -->
<g id="node4" class="node">
<title>[root] aws_security_group.traffic (expand)</title>
<polygon fill="none" stroke="black" points="162,-180 0,-180 0,-144 162,-144 162,-180"/>
<text text-anchor="middle" x="81" y="-158.3" font-family="Times,serif" font-size="14.00">aws_security_group.traffic</text>
</g>
<!-- [root] aws_instance.UBUNTU (expand)&#45;&gt;[root] aws_security_group.traffic (expand) -->
<g id="edge1" class="edge">
<title>[root] aws_instance.UBUNTU (expand)&#45;&gt;[root] aws_security_group.traffic (expand)</title>
<path fill="none" stroke="black" d="M191.28,-215.88C171.5,-206.39 146.73,-194.51 125.67,-184.42"/>
<polygon fill="black" stroke="black" points="127.13,-181.24 116.6,-180.07 124.1,-187.55 127.13,-181.24"/>
</g>
<!-- [root] var.ec2&#45;image -->
<g id="node10" class="node">
<title>[root] var.ec2&#45;image</title>
<polygon fill="none" stroke="black" points="268,-180 180,-180 180,-144 274,-144 274,-174 268,-180"/>
<polyline fill="none" stroke="black" points="268,-180 268,-174"/>
<polyline fill="none" stroke="black" points="274,-174 268,-174"/>
<text text-anchor="middle" x="227" y="-158.3" font-family="Times,serif" font-size="14.00">var.ec2&#45;image</text>
</g>
<!-- [root] aws_instance.UBUNTU (expand)&#45;&gt;[root] var.ec2&#45;image -->
<g id="edge2" class="edge">
<title>[root] aws_instance.UBUNTU (expand)&#45;&gt;[root] var.ec2&#45;image</title>
<path fill="none" stroke="black" d="M227,-215.7C227,-207.98 227,-198.71 227,-190.11"/>
<polygon fill="black" stroke="black" points="230.5,-190.1 227,-180.1 223.5,-190.1 230.5,-190.1"/>
</g>
<!-- [root] var.instance&#45;type -->
<g id="node11" class="node">
<title>[root] var.instance&#45;type</title>
<polygon fill="none" stroke="black" points="395.5,-180 292.5,-180 292.5,-144 401.5,-144 401.5,-174 395.5,-180"/>
<polyline fill="none" stroke="black" points="395.5,-180 395.5,-174"/>
<polyline fill="none" stroke="black" points="401.5,-174 395.5,-174"/>
<text text-anchor="middle" x="347" y="-158.3" font-family="Times,serif" font-size="14.00">var.instance&#45;type</text>
</g>
<!-- [root] aws_instance.UBUNTU (expand)&#45;&gt;[root] var.instance&#45;type -->
<g id="edge3" class="edge">
<title>[root] aws_instance.UBUNTU (expand)&#45;&gt;[root] var.instance&#45;type</title>
<path fill="none" stroke="black" d="M256.36,-215.88C272.05,-206.72 291.56,-195.34 308.45,-185.48"/>
<polygon fill="black" stroke="black" points="310.66,-188.25 317.53,-180.19 307.13,-182.21 310.66,-188.25"/>
</g>
<!-- [root] var.key&#45;name -->
<g id="node12" class="node">
<title>[root] var.key&#45;name</title>
<polygon fill="none" stroke="black" points="504.5,-180 419.5,-180 419.5,-144 510.5,-144 510.5,-174 504.5,-180"/>
<polyline fill="none" stroke="black" points="504.5,-180 504.5,-174"/>
<polyline fill="none" stroke="black" points="510.5,-174 504.5,-174"/>
<text text-anchor="middle" x="465" y="-158.3" font-family="Times,serif" font-size="14.00">var.key&#45;name</text>
</g>
<!-- [root] aws_instance.UBUNTU (expand)&#45;&gt;[root] var.key&#45;name -->
<g id="edge4" class="edge">
<title>[root] aws_instance.UBUNTU (expand)&#45;&gt;[root] var.key&#45;name</title>
<path fill="none" stroke="black" d="M286.83,-215.96C320.31,-206.36 363.03,-194 409.7,-180.07"/>
<polygon fill="black" stroke="black" points="410.82,-183.38 419.4,-177.16 408.82,-176.68 410.82,-183.38"/>
</g>
<!-- [root] aws_internet_gateway.kme&#45;igt (expand) -->
<g id="node2" class="node">
<title>[root] aws_internet_gateway.kme&#45;igt (expand)</title>
<polygon fill="none" stroke="black" points="502.5,-252 319.5,-252 319.5,-216 502.5,-216 502.5,-252"/>
<text text-anchor="middle" x="411" y="-230.3" font-family="Times,serif" font-size="14.00">aws_internet_gateway.kme&#45;igt</text>
</g>
<!-- [root] aws_vpc.VPC (expand) -->
<g id="node8" class="node">
<title>[root] aws_vpc.VPC (expand)</title>
<polygon fill="none" stroke="black" points="690,-108 596,-108 596,-72 690,-72 690,-108"/>
<text text-anchor="middle" x="643" y="-86.3" font-family="Times,serif" font-size="14.00">aws_vpc.VPC</text>
</g>
<!-- [root] aws_internet_gateway.kme&#45;igt (expand)&#45;&gt;[root] aws_vpc.VPC (expand) -->
<g id="edge5" class="edge">
<title>[root] aws_internet_gateway.kme&#45;igt (expand)&#45;&gt;[root] aws_vpc.VPC (expand)</title>
<path fill="none" stroke="black" d="M449.87,-215.97C470.82,-206.28 496.85,-193.42 519,-180 542.11,-165.99 546.08,-159.8 568,-144 581.79,-134.06 597.11,-123.2 610.29,-113.92"/>
<polygon fill="black" stroke="black" points="612.44,-116.69 618.6,-108.07 608.41,-110.96 612.44,-116.69"/>
</g>
<!-- [root] aws_network_interface.network_interface (expand) -->
<g id="node3" class="node">
<title>[root] aws_network_interface.network_interface (expand)</title>
<polygon fill="none" stroke="black" points="765.5,-252 520.5,-252 520.5,-216 765.5,-216 765.5,-252"/>
<text text-anchor="middle" x="643" y="-230.3" font-family="Times,serif" font-size="14.00">aws_network_interface.network_interface</text>
</g>
<!-- [root] aws_subnet.PUB&#45;2A (expand) -->
<g id="node5" class="node">
<title>[root] aws_subnet.PUB&#45;2A (expand)</title>
<polygon fill="none" stroke="black" points="708.5,-180 577.5,-180 577.5,-144 708.5,-144 708.5,-180"/>
<text text-anchor="middle" x="643" y="-158.3" font-family="Times,serif" font-size="14.00">aws_subnet.PUB&#45;2A</text>
</g>
<!-- [root] aws_network_interface.network_interface (expand)&#45;&gt;[root] aws_subnet.PUB&#45;2A (expand) -->
<g id="edge6" class="edge">
<title>[root] aws_network_interface.network_interface (expand)&#45;&gt;[root] aws_subnet.PUB&#45;2A (expand)</title>
<path fill="none" stroke="black" d="M643,-215.7C643,-207.98 643,-198.71 643,-190.11"/>
<polygon fill="black" stroke="black" points="646.5,-190.1 643,-180.1 639.5,-190.1 646.5,-190.1"/>
</g>
<!-- [root] aws_security_group.traffic (expand)&#45;&gt;[root] aws_vpc.VPC (expand) -->
<g id="edge7" class="edge">
<title>[root] aws_security_group.traffic (expand)&#45;&gt;[root] aws_vpc.VPC (expand)</title>
<path fill="none" stroke="black" d="M162.39,-145.34C165.29,-144.88 168.17,-144.43 171,-144 320.03,-121.59 496.84,-104.16 585.81,-96.03"/>
<polygon fill="black" stroke="black" points="586.31,-99.5 595.95,-95.11 585.68,-92.53 586.31,-99.5"/>
</g>
<!-- [root] aws_subnet.PUB&#45;2A (expand)&#45;&gt;[root] aws_vpc.VPC (expand) -->
<g id="edge8" class="edge">
<title>[root] aws_subnet.PUB&#45;2A (expand)&#45;&gt;[root] aws_vpc.VPC (expand)</title>
<path fill="none" stroke="black" d="M643,-143.7C643,-135.98 643,-126.71 643,-118.11"/>
<polygon fill="black" stroke="black" points="646.5,-118.1 643,-108.1 639.5,-118.1 646.5,-118.1"/>
</g>
<!-- [root] aws_subnet.PUB&#45;2B (expand) -->
<g id="node6" class="node">
<title>[root] aws_subnet.PUB&#45;2B (expand)</title>
<polygon fill="none" stroke="black" points="914,-252 784,-252 784,-216 914,-216 914,-252"/>
<text text-anchor="middle" x="849" y="-230.3" font-family="Times,serif" font-size="14.00">aws_subnet.PUB&#45;2B</text>
</g>
<!-- [root] aws_subnet.PUB&#45;2B (expand)&#45;&gt;[root] aws_vpc.VPC (expand) -->
<g id="edge9" class="edge">
<title>[root] aws_subnet.PUB&#45;2B (expand)&#45;&gt;[root] aws_vpc.VPC (expand)</title>
<path fill="none" stroke="black" d="M824.15,-215.87C787.19,-190.39 717.64,-142.45 676.31,-113.96"/>
<polygon fill="black" stroke="black" points="678.16,-110.98 667.94,-108.19 674.18,-116.75 678.16,-110.98"/>
</g>
<!-- [root] aws_subnet.PUB&#45;2C (expand) -->
<g id="node7" class="node">
<title>[root] aws_subnet.PUB&#45;2C (expand)</title>
<polygon fill="none" stroke="black" points="1062,-252 932,-252 932,-216 1062,-216 1062,-252"/>
<text text-anchor="middle" x="997" y="-230.3" font-family="Times,serif" font-size="14.00">aws_subnet.PUB&#45;2C</text>
</g>
<!-- [root] aws_subnet.PUB&#45;2C (expand)&#45;&gt;[root] aws_vpc.VPC (expand) -->
<g id="edge10" class="edge">
<title>[root] aws_subnet.PUB&#45;2C (expand)&#45;&gt;[root] aws_vpc.VPC (expand)</title>
<path fill="none" stroke="black" d="M954.3,-215.87C889.23,-189.77 765.41,-140.1 695.13,-111.91"/>
<polygon fill="black" stroke="black" points="696.16,-108.55 685.58,-108.08 693.55,-115.05 696.16,-108.55"/>
</g>
<!-- [root] provider[&quot;registry.terraform.io/hashicorp/aws&quot;] -->
<g id="node9" class="node">
<title>[root] provider[&quot;registry.terraform.io/hashicorp/aws&quot;]</title>
<polygon fill="none" stroke="black" points="643,-36 390.46,-18 643,0 895.54,-18 643,-36"/>
<text text-anchor="middle" x="643" y="-14.3" font-family="Times,serif" font-size="14.00">provider[&quot;registry.terraform.io/hashicorp/aws&quot;]</text>
</g>
<!-- [root] aws_vpc.VPC (expand)&#45;&gt;[root] provider[&quot;registry.terraform.io/hashicorp/aws&quot;] -->
<g id="edge11" class="edge">
<title>[root] aws_vpc.VPC (expand)&#45;&gt;[root] provider[&quot;registry.terraform.io/hashicorp/aws&quot;]</title>
<path fill="none" stroke="black" d="M643,-71.7C643,-63.98 643,-54.71 643,-46.11"/>
<polygon fill="black" stroke="black" points="646.5,-46.1 643,-36.1 639.5,-46.1 646.5,-46.1"/>
</g>
<!-- [root] provider[&quot;registry.terraform.io/hashicorp/aws&quot;] (close) -->
<g id="node13" class="node">
<title>[root] provider[&quot;registry.terraform.io/hashicorp/aws&quot;] (close)</title>
<ellipse fill="none" stroke="black" cx="643" cy="-306" rx="227.46" ry="18"/>
<text text-anchor="middle" x="643" y="-302.3" font-family="Times,serif" font-size="14.00">[root] provider[&quot;registry.terraform.io/hashicorp/aws&quot;] (close)</text>
</g>
<!-- [root] provider[&quot;registry.terraform.io/hashicorp/aws&quot;] (close)&#45;&gt;[root] aws_instance.UBUNTU (expand) -->
<g id="edge12" class="edge">
<title>[root] provider[&quot;registry.terraform.io/hashicorp/aws&quot;] (close)&#45;&gt;[root] aws_instance.UBUNTU (expand)</title>
<path fill="none" stroke="black" d="M540.41,-289.87C477.05,-280.24 393.83,-267.09 311.64,-252.26"/>
<polygon fill="black" stroke="black" points="312.09,-248.79 301.63,-250.45 310.84,-255.67 312.09,-248.79"/>
</g>
<!-- [root] provider[&quot;registry.terraform.io/hashicorp/aws&quot;] (close)&#45;&gt;[root] aws_internet_gateway.kme&#45;igt (expand) -->
<g id="edge13" class="edge">
<title>[root] provider[&quot;registry.terraform.io/hashicorp/aws&quot;] (close)&#45;&gt;[root] aws_internet_gateway.kme&#45;igt (expand)</title>
<path fill="none" stroke="black" d="M588.31,-288.5C555.13,-278.49 512.55,-265.64 477.43,-255.05"/>
<polygon fill="black" stroke="black" points="478.33,-251.66 467.74,-252.12 476.31,-258.36 478.33,-251.66"/>
</g>
<!-- [root] provider[&quot;registry.terraform.io/hashicorp/aws&quot;] (close)&#45;&gt;[root] aws_network_interface.network_interface (expand) -->
<g id="edge14" class="edge">
<title>[root] provider[&quot;registry.terraform.io/hashicorp/aws&quot;] (close)&#45;&gt;[root] aws_network_interface.network_interface (expand)</title>
<path fill="none" stroke="black" d="M643,-287.7C643,-279.98 643,-270.71 643,-262.11"/>
<polygon fill="black" stroke="black" points="646.5,-262.1 643,-252.1 639.5,-262.1 646.5,-262.1"/>
</g>
<!-- [root] provider[&quot;registry.terraform.io/hashicorp/aws&quot;] (close)&#45;&gt;[root] aws_subnet.PUB&#45;2B (expand) -->
<g id="edge15" class="edge">
<title>[root] provider[&quot;registry.terraform.io/hashicorp/aws&quot;] (close)&#45;&gt;[root] aws_subnet.PUB&#45;2B (expand)</title>
<path fill="none" stroke="black" d="M691.82,-288.41C720.91,-278.52 758.07,-265.9 788.95,-255.4"/>
<polygon fill="black" stroke="black" points="790.4,-258.61 798.74,-252.08 788.15,-251.98 790.4,-258.61"/>
</g>
<!-- [root] provider[&quot;registry.terraform.io/hashicorp/aws&quot;] (close)&#45;&gt;[root] aws_subnet.PUB&#45;2C (expand) -->
<g id="edge16" class="edge">
<title>[root] provider[&quot;registry.terraform.io/hashicorp/aws&quot;] (close)&#45;&gt;[root] aws_subnet.PUB&#45;2C (expand)</title>
<path fill="none" stroke="black" d="M730.51,-289.34C783.33,-279.67 852.2,-266.69 921.83,-252.21"/>
<polygon fill="black" stroke="black" points="922.59,-255.63 931.66,-250.15 921.16,-248.77 922.59,-255.63"/>
</g>
<!-- [root] root -->
<g id="node14" class="node">
<title>[root] root</title>
<ellipse fill="none" stroke="black" cx="643" cy="-378" rx="47.39" ry="18"/>
<text text-anchor="middle" x="643" y="-374.3" font-family="Times,serif" font-size="14.00">[root] root</text>
</g>
<!-- [root] root&#45;&gt;[root] provider[&quot;registry.terraform.io/hashicorp/aws&quot;] (close) -->
<g id="edge17" class="edge">
<title>[root] root&#45;&gt;[root] provider[&quot;registry.terraform.io/hashicorp/aws&quot;] (close)</title>
<path fill="none" stroke="black" d="M643,-359.7C643,-351.98 643,-342.71 643,-334.11"/>
<polygon fill="black" stroke="black" points="646.5,-334.1 643,-324.1 639.5,-334.1 646.5,-334.1"/>
</g>
</g>
</svg>
