<?xml version="1.0" encoding="UTF-8" standalone="no"?>
<!DOCTYPE svg PUBLIC "-//W3C//DTD SVG 1.1//EN"
 "http://www.w3.org/Graphics/SVG/1.1/DTD/svg11.dtd">
<!-- Generated by graphviz version 7.0.0 (20221023.0053)
 -->
<!-- Pages: 1 -->
<svg width="684pt" height="332pt"
 viewBox="0.00 0.00 684.25 332.00" xmlns="http://www.w3.org/2000/svg" xmlns:xlink="http://www.w3.org/1999/xlink">
<g id="graph0" class="graph" transform="scale(1 1) rotate(0) translate(4 328)">
<polygon fill="white" stroke="none" points="-4,4 -4,-328 680.25,-328 680.25,4 -4,4"/>
<!-- [root] aws_instance.ubuntu (expand) -->
<g id="node1" class="node">
<title>[root] aws_instance.ubuntu (expand)</title>
<polygon fill="none" stroke="black" points="513.77,-180 383.77,-180 383.77,-144 513.77,-144 513.77,-180"/>
<text text-anchor="middle" x="448.77" y="-158.3" font-family="Times,serif" font-size="14.00">aws_instance.ubuntu</text>
</g>
<!-- [root] aws_security_group.sg (expand) -->
<g id="node2" class="node">
<title>[root] aws_security_group.sg (expand)</title>
<polygon fill="none" stroke="black" points="323.27,-108 182.27,-108 182.27,-72 323.27,-72 323.27,-108"/>
<text text-anchor="middle" x="252.77" y="-86.3" font-family="Times,serif" font-size="14.00">aws_security_group.sg</text>
</g>
<!-- [root] aws_instance.ubuntu (expand)&#45;&gt;[root] aws_security_group.sg (expand) -->
<g id="edge1" class="edge">
<title>[root] aws_instance.ubuntu (expand)&#45;&gt;[root] aws_security_group.sg (expand)</title>
<path fill="none" stroke="black" d="M399.81,-143.52C373.17,-134 340.01,-122.16 311.93,-112.13"/>
<polygon fill="black" stroke="black" points="313.46,-108.96 302.86,-108.89 311.1,-115.55 313.46,-108.96"/>
</g>
<!-- [root] var.ec2&#45;image -->
<g id="node4" class="node">
<title>[root] var.ec2&#45;image</title>
<polygon fill="none" stroke="black" points="429.77,-108 341.77,-108 341.77,-72 435.77,-72 435.77,-102 429.77,-108"/>
<polyline fill="none" stroke="black" points="429.77,-108 429.77,-102"/>
<polyline fill="none" stroke="black" points="435.77,-102 429.77,-102"/>
<text text-anchor="middle" x="388.77" y="-86.3" font-family="Times,serif" font-size="14.00">var.ec2&#45;image</text>
</g>
<!-- [root] aws_instance.ubuntu (expand)&#45;&gt;[root] var.ec2&#45;image -->
<g id="edge2" class="edge">
<title>[root] aws_instance.ubuntu (expand)&#45;&gt;[root] var.ec2&#45;image</title>
<path fill="none" stroke="black" d="M433.94,-143.7C426.96,-135.56 418.5,-125.69 410.8,-116.7"/>
<polygon fill="black" stroke="black" points="413.58,-114.57 404.41,-109.25 408.26,-119.12 413.58,-114.57"/>
</g>
<!-- [root] var.instance&#45;type -->
<g id="node5" class="node">
<title>[root] var.instance&#45;type</title>
<polygon fill="none" stroke="black" points="557.27,-108 454.27,-108 454.27,-72 563.27,-72 563.27,-102 557.27,-108"/>
<polyline fill="none" stroke="black" points="557.27,-108 557.27,-102"/>
<polyline fill="none" stroke="black" points="563.27,-102 557.27,-102"/>
<text text-anchor="middle" x="508.77" y="-86.3" font-family="Times,serif" font-size="14.00">var.instance&#45;type</text>
</g>
<!-- [root] aws_instance.ubuntu (expand)&#45;&gt;[root] var.instance&#45;type -->
<g id="edge3" class="edge">
<title>[root] aws_instance.ubuntu (expand)&#45;&gt;[root] var.instance&#45;type</title>
<path fill="none" stroke="black" d="M463.6,-143.7C470.57,-135.56 479.03,-125.69 486.74,-116.7"/>
<polygon fill="black" stroke="black" points="489.27,-119.12 493.12,-109.25 483.96,-114.57 489.27,-119.12"/>
</g>
<!-- [root] var.key&#45;name -->
<g id="node6" class="node">
<title>[root] var.key&#45;name</title>
<polygon fill="none" stroke="black" points="666.27,-108 581.27,-108 581.27,-72 672.27,-72 672.27,-102 666.27,-108"/>
<polyline fill="none" stroke="black" points="666.27,-108 666.27,-102"/>
<polyline fill="none" stroke="black" points="672.27,-102 666.27,-102"/>
<text text-anchor="middle" x="626.77" y="-86.3" font-family="Times,serif" font-size="14.00">var.key&#45;name</text>
</g>
<!-- [root] aws_instance.ubuntu (expand)&#45;&gt;[root] var.key&#45;name -->
<g id="edge4" class="edge">
<title>[root] aws_instance.ubuntu (expand)&#45;&gt;[root] var.key&#45;name</title>
<path fill="none" stroke="black" d="M493.23,-143.52C517.1,-134.13 546.74,-122.47 572.03,-112.53"/>
<polygon fill="black" stroke="black" points="573.14,-115.85 581.16,-108.94 570.57,-109.34 573.14,-115.85"/>
</g>
<!-- [root] provider[&quot;registry.terraform.io/hashicorp/aws&quot;] -->
<g id="node3" class="node">
<title>[root] provider[&quot;registry.terraform.io/hashicorp/aws&quot;]</title>
<polygon fill="none" stroke="black" points="252.77,-36 0.23,-18 252.77,0 505.3,-18 252.77,-36"/>
<text text-anchor="middle" x="252.77" y="-14.3" font-family="Times,serif" font-size="14.00">provider[&quot;registry.terraform.io/hashicorp/aws&quot;]</text>
</g>
<!-- [root] aws_security_group.sg (expand)&#45;&gt;[root] provider[&quot;registry.terraform.io/hashicorp/aws&quot;] -->
<g id="edge5" class="edge">
<title>[root] aws_security_group.sg (expand)&#45;&gt;[root] provider[&quot;registry.terraform.io/hashicorp/aws&quot;]</title>
<path fill="none" stroke="black" d="M252.77,-71.7C252.77,-64.41 252.77,-55.73 252.77,-47.54"/>
<polygon fill="black" stroke="black" points="256.27,-47.62 252.77,-37.62 249.27,-47.62 256.27,-47.62"/>
</g>
<!-- [root] provider[&quot;registry.terraform.io/hashicorp/aws&quot;] (close) -->
<g id="node7" class="node">
<title>[root] provider[&quot;registry.terraform.io/hashicorp/aws&quot;] (close)</title>
<ellipse fill="none" stroke="black" cx="448.77" cy="-234" rx="227.46" ry="18"/>
<text text-anchor="middle" x="448.77" y="-230.3" font-family="Times,serif" font-size="14.00">[root] provider[&quot;registry.terraform.io/hashicorp/aws&quot;] (close)</text>
</g>
<!-- [root] provider[&quot;registry.terraform.io/hashicorp/aws&quot;] (close)&#45;&gt;[root] aws_instance.ubuntu (expand) -->
<g id="edge6" class="edge">
<title>[root] provider[&quot;registry.terraform.io/hashicorp/aws&quot;] (close)&#45;&gt;[root] aws_instance.ubuntu (expand)</title>
<path fill="none" stroke="black" d="M448.77,-215.7C448.77,-208.41 448.77,-199.73 448.77,-191.54"/>
<polygon fill="black" stroke="black" points="452.27,-191.62 448.77,-181.62 445.27,-191.62 452.27,-191.62"/>
</g>
<!-- [root] root -->
<g id="node8" class="node">
<title>[root] root</title>
<ellipse fill="none" stroke="black" cx="448.77" cy="-306" rx="47.39" ry="18"/>
<text text-anchor="middle" x="448.77" y="-302.3" font-family="Times,serif" font-size="14.00">[root] root</text>
</g>
<!-- [root] root&#45;&gt;[root] provider[&quot;registry.terraform.io/hashicorp/aws&quot;] (close) -->
<g id="edge7" class="edge">
<title>[root] root&#45;&gt;[root] provider[&quot;registry.terraform.io/hashicorp/aws&quot;] (close)</title>
<path fill="none" stroke="black" d="M448.77,-287.7C448.77,-280.41 448.77,-271.73 448.77,-263.54"/>
<polygon fill="black" stroke="black" points="452.27,-263.62 448.77,-253.62 445.27,-263.62 452.27,-263.62"/>
</g>
</g>
</svg>
